<?xml version="1.0" encoding="UTF-8" standalone="no"?>
<svg
   xmlns:dc="http://purl.org/dc/elements/1.1/"
   xmlns:cc="http://creativecommons.org/ns#"
   xmlns:rdf="http://www.w3.org/1999/02/22-rdf-syntax-ns#"
   xmlns:svg="http://www.w3.org/2000/svg"
   xmlns="http://www.w3.org/2000/svg"
   viewBox="0 0 943.59253 268.35626"
   height="268.35626"
   width="943.59253"
   xml:space="preserve"
   version="1.1"
   id="svg2"><metadata
     id="metadata8"><rdf:RDF><cc:Work
         rdf:about=""><dc:format>image/svg+xml</dc:format><dc:type
           rdf:resource="http://purl.org/dc/dcmitype/StillImage" /></cc:Work></rdf:RDF></metadata><defs
     id="defs6"><clipPath
       id="clipPath16"
       clipPathUnits="userSpaceOnUse"><path
         id="path18"
         d="m 0,214.685 754.874,0 L 754.874,0 0,0 0,214.685 Z" /></clipPath></defs><g
     transform="matrix(1.25,0,0,-1.25,0,268.35625)"
     id="g10"><g
       id="g12"><g
         clip-path="url(#clipPath16)"
         id="g14"><g
           transform="translate(568.0371,130.3373)"
           id="g20"><path
             id="path22"
             style="fill:#15181a;fill-opacity:1;fill-rule:nonzero;stroke:none"
             d="m 0,0 c 3.743,3.103 9.816,3.147 13.537,-0.051 2.37,-2.037 3.103,-4.135 3.649,-6.867 l -21.363,0 C -3.344,-4.186 -2.434,-2.018 0,0 m 24.396,-25.134 -5.116,6.583 c -7.445,-7.956 -21.296,-5.658 -23.186,4.031 l -0.17,0.875 30.932,-0.001 c 0.245,2.732 1.794,11.337 -5.467,18.625 -7.609,7.635 -21.018,8.204 -29.675,-0.424 -8.37,-8.344 -8.521,-21.628 0.081,-30.093 9.465,-9.312 24.607,-7.586 32.601,0.404" /></g><g
           transform="translate(561.3574,149.5556)"
           id="g24"><path
             id="path26"
             style="fill:#15181a;fill-opacity:1;fill-rule:nonzero;stroke:none"
             d="M 0,0 C 5.359,-5.36 13.408,2.682 8.045,8.045 2.687,13.404 -5.365,5.363 0,0" /></g><g
           transform="translate(707.9434,140.3178)"
           id="g28"><path
             id="path30"
             style="fill:#15181a;fill-opacity:1;fill-rule:nonzero;stroke:none"
             d="m 0,0 -11.436,0 -16.233,-18.54 0,18.54 -10.192,0 0,-40.947 10.192,0 0,9.93 5.997,6.973 11.558,-16.903 11.217,0 -16.422,23.525 L 0,0 Z" /></g><g
           transform="translate(580.3867,149.558)"
           id="g32"><path
             id="path34"
             style="fill:#15181a;fill-opacity:1;fill-rule:nonzero;stroke:none"
             d="M 0,0 C 5.417,-5.356 13.416,2.73 8.051,8.04 2.649,13.382 -5.383,5.328 0,0" /></g><g
           transform="translate(531.0273,108.2949)"
           id="g36"><path
             id="path38"
             style="fill:#15181a;fill-opacity:1;fill-rule:nonzero;stroke:none"
             d="m 0,0 -17.688,0 c 2.379,3.602 3.248,4.43 4.906,10.169 1.52,5.268 1.344,9.026 1.344,12.929 L 0,23.098 0,0 Z m 15.811,-18.895 0,18.895 -5.62,0 0,32.023 -30.977,0 C -20.786,20.44 -19.752,8.386 -28.145,0 l -2.146,0 0,-18.895 10.191,0 0,9.971 25.718,0 0,-9.971 10.193,0 z" /></g><g
           transform="translate(732.3252,107.789)"
           id="g40"><path
             id="path42"
             style="fill:#15181a;fill-opacity:1;fill-rule:nonzero;stroke:none"
             d="m 0,0 c -6.889,0 -11.618,5.441 -11.618,12.052 0,6.338 4.44,11.977 11.618,11.977 7.089,0 11.694,-5.78 11.694,-11.977 C 11.694,5.796 7.123,0 0,0 m 22.549,-8.418 0,40.947 -10.172,0 0,-6.418 c -2.474,2.732 -6.333,7.263 -14.148,7.263 -11.459,0 -20.08,-8.801 -20.08,-21.166 0,-20.688 22.192,-27.518 32.955,-15.849 l 1.273,1.381 0,-6.158 10.172,0 z" /></g><g
           transform="translate(662.0107,140.3178)"
           id="g44"><path
             id="path46"
             style="fill:#15181a;fill-opacity:1;fill-rule:nonzero;stroke:none"
             d="m 0,0 -11.434,0 -14.925,-17.248 0,17.248 -10.235,0 0,-17.252 L -51.479,0 l -11.475,0 15.32,-17.421 -16.382,-23.526 11.176,0 11.546,16.884 4.7,-5.211 0,-11.673 10.235,0 0,11.673 4.7,5.211 11.545,-16.884 11.176,0 -16.381,23.526 L 0,0 Z" /></g><g
           transform="translate(379.7339,107.8725)"
           id="g48"><path
             id="path50"
             style="fill:#15181a;fill-opacity:1;fill-rule:nonzero;stroke:none"
             d="m 0,0 c -5.843,0 -11.127,4.933 -11.127,11.95 0,7.038 5.298,11.993 11.127,11.993 5.845,0 11.126,-4.975 11.126,-11.993 C 11.126,4.932 5.842,0 0,0 m -15.285,26.89 c -8.658,-8.522 -8.753,-21.221 0,-29.836 8.706,-8.57 21.856,-8.582 30.548,-10e-4 8.631,8.522 8.725,21.222 0,29.837 -8.691,8.581 -21.842,8.57 -30.548,0" /></g><g
           transform="translate(446.9326,99.3705)"
           id="g52"><path
             id="path54"
             style="fill:#15181a;fill-opacity:1;fill-rule:nonzero;stroke:none"
             d="m 0,0 0,40.947 -32.709,0 c 0,-21.077 0.771,-34.539 -9.928,-32.245 l 0,-8.959 c 3.74,-1.661 9.377,-1.468 12.865,1.224 1.961,1.514 3.609,4.556 4.897,9.042 2.101,7.323 1.978,16.682 1.978,22.013 l 12.706,0 L -10.191,0 0,0 Z" /></g><g
           transform="translate(475.9863,107.8725)"
           id="g56"><path
             id="path58"
             style="fill:#15181a;fill-opacity:1;fill-rule:nonzero;stroke:none"
             d="m 0,0 c -5.843,0 -11.127,4.933 -11.127,11.95 0,7.038 5.299,11.993 11.127,11.993 5.846,0 11.127,-4.975 11.127,-11.993 C 11.127,4.932 5.843,0 0,0 m -15.285,26.89 c -8.659,-8.524 -8.75,-21.223 0,-29.836 8.706,-8.569 21.856,-8.583 30.549,-10e-4 8.632,8.523 8.721,21.225 0,29.837 -8.694,8.583 -21.844,8.568 -30.549,0" /></g><g
           transform="translate(351.2002,99.3705)"
           id="g60"><path
             id="path62"
             style="fill:#15181a;fill-opacity:1;fill-rule:nonzero;stroke:none"
             d="m 0,0 0,59.113 -10.402,0 -21.312,-26.854 -21.097,26.854 -10.611,0 0,-59.113 11.544,0 0,41.6 20.166,-25.558 20.211,25.735 L -11.501,0 0,0 Z" /></g><g
           transform="translate(280.6509,214.685)"
           id="g64"><path
             id="path66"
             style="fill:#d52b2f;fill-opacity:1;fill-rule:nonzero;stroke:none"
             d="m 0,0 -69.751,-35.541 c -39.395,37.968 -101.745,37.976 -141.148,0 L -280.651,0 l 61.56,-214.686 21.36,21.927 c 34.197,-23.424 79.907,-23.908 114.812,0 L -61.56,-214.686 0,0 Z" /></g><g
           transform="translate(140.3257,131.1777)"
           id="g68"><path
             id="path70"
             style="fill:#ffffff;fill-opacity:1;fill-rule:nonzero;stroke:none"
             d="m 0,0 -123.259,62.803 49.696,-173.307 37.952,38.96 -12.322,42.97 L 0,-52.997 47.933,-28.574 35.611,-71.544 73.563,-110.504 123.258,62.803 0,0 Z" /></g><g
           transform="translate(319.9917,64.1303)"
           id="g72"><path
             id="path74"
             style="fill:#8c8f91;fill-opacity:1;fill-rule:nonzero;stroke:none"
             d="m 0,0 0,-12.248 -4.185,0 0,11.563 c 0,3.615 -1.825,5.592 -4.678,5.592 -3.043,0 -5.135,-2.244 -5.135,-5.706 l 0,-11.449 -4.184,0 0,11.487 c 0,3.538 -1.826,5.668 -4.717,5.668 -3.043,0 -5.173,-2.282 -5.173,-5.781 l 0,-11.374 -4.184,0 0,20.503 4.108,0 0,-2.967 C -25.312,10.34 -17.776,9.714 -15.634,5.06 -12.083,10.818 0,10.622 0,0" /></g><g
           transform="translate(330.0361,66.9838)"
           id="g76"><path
             id="path78"
             style="fill:#8c8f91;fill-opacity:1;fill-rule:nonzero;stroke:none"
             d="m 0,0 c -2.582,-2.738 -2.516,-7.032 0,-9.7 4.184,-4.306 11.335,-1.319 11.335,4.869 C 11.335,1.281 4.161,4.405 0,0 m 12.477,2.776 c 6.376,-6.494 2.493,-18.41 -7.76,-18.41 -6.571,0 -10.841,4.909 -10.841,10.803 0,10.241 12.324,14.121 18.601,7.607" /></g><path
           id="path80"
           style="fill:#8c8f91;fill-opacity:1;fill-rule:nonzero;stroke:none"
           d="m 353.964,51.882 -4.184,0 0,28.833 4.184,0 0,-28.833 z" /><g
           transform="translate(368.9893,69.0375)"
           id="g82"><path
             id="path84"
             style="fill:#8c8f91;fill-opacity:1;fill-rule:nonzero;stroke:none"
             d="m 0,0 c -3.757,0 -6.619,-3.141 -6.619,-6.885 0,-3.853 2.897,-6.885 6.619,-6.885 3.763,0 6.619,3.124 6.619,6.885 C 6.619,-3.221 3.783,0 0,0 m 0,3.88 c 6.407,0 10.841,-4.898 10.841,-10.765 0,-5.839 -4.26,-10.803 -10.841,-10.803 -6.571,0 -10.841,4.91 -10.841,10.803 0,5.884 4.399,10.765 10.841,10.765" /></g><g
           transform="translate(393.6021,69.0375)"
           id="g86"><path
             id="path88"
             style="fill:#8c8f91;fill-opacity:1;fill-rule:nonzero;stroke:none"
             d="m 0,0 c -6.365,0 -8.485,-7.75 -4.755,-11.83 2.425,-2.651 7.075,-2.663 9.509,0 C 8.609,-7.614 6.229,0 0,0 m 6.276,11.678 4.223,0 0,-28.833 -4.147,0 0,2.852 c -3.789,-4.755 -10.565,-4.142 -14.226,-0.265 -6.11,6.589 -2.267,18.41 7.303,18.41 2.701,0 4.983,-1.103 6.847,-3.348 l 0,11.184 z" /></g><g
           transform="translate(412.6606,63.9399)"
           id="g90"><path
             id="path92"
             style="fill:#8c8f91;fill-opacity:1;fill-rule:nonzero;stroke:none"
             d="M 0,0 11.944,0 C 11.209,6.941 1.39,7.298 0,0 M 16.014,-3.423 0,-3.423 c 1.348,-7.076 9.794,-6.056 13.77,-3.157 l 1.75,-3.081 c -7.209,-5.373 -19.856,-3.443 -19.856,7.912 0,14.824 22.746,14.29 20.35,-1.674" /></g><g
           transform="translate(437.083,55.4574)"
           id="g94"><path
             id="path96"
             style="fill:#8c8f91;fill-opacity:1;fill-rule:nonzero;stroke:none"
             d="m 0,0 11.525,0 0,-3.575 -17.23,0 0,2.776 11.221,14.112 -10.613,0 0,3.577 16.281,0 0,-2.625 L 0,0 Z" /></g><g
           transform="translate(452.6045,51.8822)"
           id="g98"><path
             id="path100"
             style="fill:#8c8f91;fill-opacity:1;fill-rule:nonzero;stroke:none"
             d="m 0,0 0,28.833 4.07,0 0,-10.917 c 3.309,5.067 14.531,4.476 14.531,-5.439 l 0,-12.477 -4.185,0 0,11.297 c 0,3.766 -1.978,5.858 -4.906,5.858 -3.158,0 -5.326,-2.396 -5.326,-5.895 L 4.184,0 0,0 Z" /></g><g
           transform="translate(489.7314,51.8822)"
           id="g102"><path
             id="path104"
             style="fill:#8c8f91;fill-opacity:1;fill-rule:nonzero;stroke:none"
             d="m 0,0 -7.38,9.319 -1.788,-1.635 0,-7.684 -4.184,0 0,28.833 4.184,0 0,-16.242 8.635,7.912 5.515,0 L -4.45,11.982 5.401,0 0,0 Z" /></g><g
           transform="translate(505.8613,69.0375)"
           id="g106"><path
             id="path108"
             style="fill:#8c8f91;fill-opacity:1;fill-rule:nonzero;stroke:none"
             d="M 0,0 C -8.734,0 -8.812,-13.808 0,-13.808 8.798,-13.808 8.81,0 0,0 m 6.428,3.348 4.032,0 0,-20.503 -4.032,0 0,2.814 C 2.491,-19 -4.234,-18.496 -7.912,-14.53 c -5.791,6.245 -2.772,18.372 7.341,18.372 2.777,0 5.135,-1.103 6.999,-3.348 l 0,2.854 z" /></g><g
           transform="translate(523.5498,56.561)"
           id="g110"><path
             id="path112"
             style="fill:#d52b2f;fill-opacity:1;fill-rule:nonzero;stroke:none"
             d="M 0,0 C 3.502,0 3.472,-5.287 0,-5.287 -3.564,-5.287 -3.61,0 0,0" /></g><g
           transform="translate(539.6787,69.0375)"
           id="g114"><path
             id="path116"
             style="fill:#d52b2f;fill-opacity:1;fill-rule:nonzero;stroke:none"
             d="m 0,0 c -3.757,0 -6.618,-3.141 -6.618,-6.885 0,-3.853 2.896,-6.885 6.618,-6.885 3.763,0 6.619,3.124 6.619,6.885 C 6.619,-3.221 3.783,0 0,0 m 0,3.88 c 6.407,0 10.842,-4.898 10.842,-10.765 0,-5.839 -4.261,-10.803 -10.842,-10.803 -6.57,0 -10.841,4.91 -10.841,10.803 0,5.884 4.4,10.765 10.841,10.765" /></g><g
           transform="translate(554.7061,51.8822)"
           id="g118"><path
             id="path120"
             style="fill:#d52b2f;fill-opacity:1;fill-rule:nonzero;stroke:none"
             d="m 0,0 0,20.503 3.994,0 0,-2.93 c 1.695,3.234 5.042,4.084 8.254,3.119 l -0.381,-4.07 C 8.814,17.749 4.184,16.729 4.184,10.499 L 4.184,0 0,0 Z" /></g><g
           transform="translate(578.5947,69.0756)"
           id="g122"><path
             id="path124"
             style="fill:#d52b2f;fill-opacity:1;fill-rule:nonzero;stroke:none"
             d="M 0,0 C -8.721,0 -8.727,-13.504 0,-13.504 8.715,-13.504 8.834,0 0,0 m 6.467,3.31 4.032,0 0,-18.412 c 0,-11.401 -12.604,-13.383 -20.274,-7.873 l 1.825,3.233 c 6.068,-4.349 14.303,-2.833 14.303,4.07 l 0,1.484 c -5.444,-6.139 -17.156,-2.79 -17.156,7.494 0,9.977 11.74,13.715 17.27,7.379 l 0,2.625 z" /></g></g></g></g></svg>