<?xml version="1.0" encoding="utf-8"?><svg width="981" height="1065" viewBox="0 0 981 1065" xmlns="http://www.w3.org/2000/svg" xmlns:xlink="http://www.w3.org/1999/xlink"><svg id="10" data-name="Слой 2" viewBox="-5 -5 29.28 31.62" width="29.28" height="31.62" xmlns="http://www.w3.org/2000/svg"><defs><style>.aacls-1{fill:none}.aacls-2{clip-path:url(#aaclip-path)}.aacls-3{fill:#010101}</style><clipPath id="aaclip-path" transform="translate(-90.26 -321.36)"><path class="aacls-1" d="M90.26 321.36h19.33V343H90.26z"/></clipPath></defs><g class="aacls-2"><path class="aacls-3" d="M108.33 322.57a4.14 4.14 0 0 0-5.85 0L91.95 333.1a5.79 5.79 0 0 0 8.19 8.19l8.19-8.19a.83.83 0 0 0-1.17-1.17L99 340.12a4.14 4.14 0 0 1-5.85-5.85l10.53-10.53a2.48 2.48 0 0 1 3.51 3.51l-9.36 9.36a.82.82 0 0 1-.59.24.85.85 0 0 1-.83-.83.83.83 0 0 1 .25-.59l8.19-8.19a.83.83 0 1 0-1.17-1.17l-8.19 8.19a2.46 2.46 0 0 0-.74 1.76 2.54 2.54 0 0 0 2.49 2.49 2.46 2.46 0 0 0 1.75-.73l9.36-9.36a4.14 4.14 0 0 0 0-5.85zm0 0" transform="translate(-90.26 -321.36)"/></g></svg><svg id="11" data-name="Слой 2" viewBox="-5 -5 19.04 15.76" width="19.04" height="15.76" x="30" y="32" xmlns="http://www.w3.org/2000/svg"><defs><style>.abcls-1{fill:red}</style></defs><path class="abcls-1" d="M7.77 0L4.52 3.23 1.27 0 0 1.28 3.24 4.5l1.28 1.26L5.8 4.5l3.24-3.22L7.77 0z"/></svg><svg data-name="Слой 2" viewBox="-5 -5 19.04 15.76" width="19.04" height="15.76" id="12" x="50" y="48" xmlns="http://www.w3.org/2000/svg"><path d="M1.27 5.76l3.25-3.22 3.25 3.22 1.27-1.27L5.8 1.27 4.52 0 3.24 1.27 0 4.49l1.27 1.27z"/></svg><svg id="13" data-name="Слой 2" viewBox="-5 -5 19.04 15.76" width="19.04" height="15.76" x="70" y="64" xmlns="http://www.w3.org/2000/svg"><defs><style>.adcls-1{fill:#61727e}</style></defs><path class="adcls-1" d="M1.27 5.76l3.25-3.22 3.25 3.22 1.27-1.27L5.8 1.27 4.52 0 3.24 1.27 0 4.49l1.27 1.27z"/></svg><svg id="14" data-name="Слой 2" viewBox="-5 -5 15.76 19.04" width="15.76" height="19.04" x="90" y="80" xmlns="http://www.w3.org/2000/svg"><defs><style>.aecls-1{fill:red}</style></defs><path class="aecls-1" d="M0 1.27l3.23 3.25L0 7.77l1.28 1.27L4.5 5.8l1.26-1.28L4.5 3.24 1.28 0 0 1.27z"/></svg><svg id="15" data-name="Слой 2" viewBox="-5 -5 15.76 19.04" width="15.76" height="19.04" x="106" y="100" xmlns="http://www.w3.org/2000/svg"><defs><style>.afcls-1{fill:red}</style></defs><path class="afcls-1" d="M5.76 7.77L2.54 4.52l3.22-3.25L4.49 0 1.27 3.24 0 4.52 1.27 5.8l3.22 3.24 1.27-1.27z"/></svg><svg id="16" data-name="Слой 2" viewBox="-5 -5 19.04 15.76" width="19.04" height="15.76" x="122" y="120" xmlns="http://www.w3.org/2000/svg"><defs><style>.agcls-1{fill:red}</style></defs><path class="agcls-1" d="M1.27 5.76l3.25-3.22 3.25 3.22 1.27-1.27L5.8 1.27 4.52 0 3.24 1.27 0 4.49l1.27 1.27z"/></svg><svg data-name="Слой 2" viewBox="-5 -5 21.46 19.04" width="21.46" height="19.04" id="17" x="142" y="136" xmlns="http://www.w3.org/2000/svg"><path d="M5.76 7.77L2.54 4.52l3.22-3.25L4.49 0 1.27 3.24 0 4.52 1.27 5.8l3.22 3.24 1.27-1.27z"/><path d="M11.46 7.77L8.23 4.52l3.23-3.25L10.19 0 6.97 3.24 5.7 4.52 6.97 5.8l3.22 3.24 1.27-1.27z"/></svg><svg data-name="Слой 2" viewBox="-5 -5 21.46 19.04" width="21.46" height="19.04" id="18" x="164" y="156" xmlns="http://www.w3.org/2000/svg"><path d="M5.7 1.27l3.23 3.25L5.7 7.77l1.28 1.27L10.2 5.8l1.26-1.28-1.26-1.28L6.98 0 5.7 1.27z"/><path d="M0 1.27l3.23 3.25L0 7.77l1.28 1.27L4.5 5.8l1.26-1.28L4.5 3.24 1.28 0 0 1.27z"/></svg><svg id="19" data-name="Слой 2" viewBox="-5 -5 43.63 45" width="43.63" height="45" x="186" y="176" xmlns="http://www.w3.org/2000/svg"><defs><style>.ajcls-1{fill:#ff402f}.ajcls-2{fill:none;stroke:#878787;stroke-miterlimit:10;stroke-width:.25px}.ajcls-3{fill:#fd4233}.ajcls-4{font-size:7.78px;fill:#fff;font-family:Bahnschrift,Bahnschrift}</style></defs><path class="ajcls-1" d="M141.49 455.7a1 1 0 0 0-.29-.5 4.05 4.05 0 0 0-2.61-.62 21.6 21.6 0 0 0-3.14.23 7.83 7.83 0 0 1-1.46-1 10.65 10.65 0 0 1-2.63-4.09l.1-.41a26.58 26.58 0 0 0 .46-4.79 1.39 1.39 0 0 0-.08-.34l-.05-.14a1.13 1.13 0 0 0-1-.79h-.32a1.17 1.17 0 0 0-1.19.75c-.38 1.41 0 3.52.73 6.24l-.18.44c-.51 1.25-1.15 2.5-1.71 3.61l-.07.14c-.6 1.16-1.13 2.15-1.63 3l-.5.27s-.9.48-1.11.6c-1.72 1-2.86 2.2-3.05 3.12a.77.77 0 0 0 .29.85l.49.25a1.5 1.5 0 0 0 .67.16c1.23 0 2.65-1.53 4.61-5a45.87 45.87 0 0 1 7.1-1.69 12.25 12.25 0 0 0 5.18 1.64 2.39 2.39 0 0 0 .61-.07 1.06 1.06 0 0 0 .61-.41 2.19 2.19 0 0 0 .17-1.45zm-18.61 6a8.51 8.51 0 0 1 2.42-2.89l.47-.43c-1.37 2.2-2.28 3.07-2.89 3.34zm7.75-17.85c.39 0 .62 1 .64 1.92a4 4 0 0 1-.47 2.07 10 10 0 0 1-.33-2.58s-.01-1.39.17-1.39zm-2.31 12.72q.41-.74.85-1.56a29.2 29.2 0 0 0 1.5-3.26 10.8 10.8 0 0 0 2.47 3.06l.39.31a31.36 31.36 0 0 0-5.21 1.47zm12.5-.11a1.83 1.83 0 0 1-.69.12 8.07 8.07 0 0 1-2.85-.86c.48 0 .92-.05 1.31-.05a5 5 0 0 1 1.64.18c.7.15.71.55.59.63z" transform="translate(-110.98 -430.02)"/><path class="ajcls-2" d="M25.15.13v8.35h8.35"/><path class="ajcls-2" d="M33.5 8.48L25.15.13H7.75v34.75H33.5V8.48z"/><path class="ajcls-3" d="M0 2.96h23.92v9.08H0z"/><text class="ajcls-4" transform="matrix(1.11 0 0 1 4.03 10.62)">PDF</text></svg><svg id="20" data-name="Слой 2" viewBox="-5 -5 26.97 15.1" width="26.97" height="15.1" x="230" y="221" xmlns="http://www.w3.org/2000/svg"><defs><style>.akcls-1{fill:#ff8389}</style></defs><path class="akcls-1" d="M0 2.55V0v5.1l3.31-2.55L0 0v2.55zM6.83 2.55V0v5.1l3.31-2.55L6.83 0v2.55zM13.65 2.55V0v5.1l3.32-2.55L13.65 0v2.55z"/></svg><svg id="21" data-name="Слой 2" viewBox="-5 -5 35.01 35.08" width="35.01" height="35.08" x="257" y="237" xmlns="http://www.w3.org/2000/svg"><defs id="aldefs4"><style id="alstyle2">.alcls-1{fill:none;stroke:#000;stroke-miterlimit:10;stroke-width:2px}</style></defs><path class="alcls-1" id="alline8" d="M4 3.58V0"/><path class="alcls-1" id="alline10" d="M4 9.58v15.5"/><path id="alpath14" d="M4 3.59a3 3 0 0 1 0 6m0-6a3 3 0 1 0 0 6" stroke-width="2" stroke-miterlimit="10" fill="none" stroke="#000"/><path class="alcls-1" id="alline16" d="M12.5 15.58V0"/><path class="alcls-1" id="alline18" d="M12.5 21.58v3.5"/><path d="M12.51 15.59a3 3 0 0 0 0 6 3 3 0 0 0 0-6z" id="alpath20" stroke="#000" stroke-width="2" fill="none"/><path class="alcls-1" id="alline24" d="M21.01 6.58V0"/><path class="alcls-1" id="alline26" d="M21.01 12.58v12.5"/><path d="M21.01 6.59a3 3 0 0 0 0 6 3 3 0 0 0 0-6z" id="alpath28" fill="none" stroke="#000" stroke-width="2"/></svg><svg id="23" data-name="Слой 2" viewBox="-5 -5 21.34 23.08" width="21.34" height="23.08" x="293" y="273" xmlns="http://www.w3.org/2000/svg"><defs><style>.amcls-1{fill:#cbd6d8}</style></defs><circle class="amcls-1" cx="5.67" cy="3.42" r="3.42"/><path class="amcls-1" d="M117.27 605.67h11.33l-2.8-4.78a5.63 5.63 0 0 1-5.73 0z" transform="translate(-117.27 -592.59)"/></svg><svg id="24" data-name="Слой 2" viewBox="-5 -5 19.98 16.67" width="19.98" height="16.67" x="315" y="297" xmlns="http://www.w3.org/2000/svg"><defs><style>.ancls-1{fill:none;stroke:#0088d7;stroke-miterlimit:10}</style></defs><path class="ancls-1" d="M0 .5h1.98M4 .5h5.98M0 3.33h1.98M4 3.33h5.98M0 6.17h1.98M4 6.17h5.98"/></svg><svg id="25" data-name="Слой 2" viewBox="-5 -5 24.81 24.08" width="24.81" height="24.08" x="335" y="314" xmlns="http://www.w3.org/2000/svg"><defs><style>.aocls-1{fill:#f01}</style></defs><path class="aocls-1" d="M7.4 0l2.29 4.64 5.12.74-3.7 3.61.87 5.09-4.58-2.4-4.57 2.4.87-5.09L0 5.38l5.12-.74L7.4 0z"/></svg><svg id="26" data-name="Слой 2" viewBox="-5 -5 24.81 24.08" width="24.81" height="24.08" x="360" y="339" xmlns="http://www.w3.org/2000/svg"><defs id="apdefs4"><style id="apstyle2">.apcls-1{fill:#ccd7d9}</style><filter id="apfilter836" x="-.059" width="1.117" y="-.062" height="1.123" color-interpolation-filters="sRGB"><feGaussianBlur stdDeviation=".361" id="apfeGaussianBlur838"/></filter><clipPath id="apclipPath852"><path id="aprect854" fill="#f0f" stroke="#b4b4b4" stroke-width=".4" stroke-linecap="round" d="M-16.073-8.11h6.834v9.872h-6.834z"/></clipPath><clipPath id="apclipPath980"><path id="aprect982" fill="green" stroke-width="1.428" stroke-linecap="round" d="M26.072-1.492h10.321v14.736H26.072z"/></clipPath><clipPath id="apclipPath1014"><path id="appolygon1016" class="apcls-1" transform="matrix(1.00098 0 0 1.00098 -.007 0)" fill="#ccd7d9" d="M11.11 8.99l.87 5.09-4.58-2.4-4.57 2.4.87-5.09L0 5.38l5.12-.74L7.4 0l2.29 4.64 5.12.74z"/></clipPath></defs><path class="apcls-1" id="appolygon8" fill="#ccd7d9" d="M7.4 0l2.29 4.64 5.12.74-3.7 3.61.87 5.09-4.58-2.4-4.57 2.4.87-5.09L0 5.38l5.12-.74L7.4 0z"/><path transform="matrix(.99902 0 0 .99902 .007 0)" id="appath1012" d="M7.398-.85L4.871 4.297l-5.678.82 4.104 4.004-.965 5.645L7.4 12.104l5.077 2.66-.963-5.643 4.101-4.004-.752-.107-4.924-.713zM7.4.848l2.041 4.134 4.563.66-3.297 3.217.777 4.537-4.084-2.14-4.074 2.14.778-4.537L.807 5.643l4.562-.66z" style="line-height:normal;font-variant-ligatures:normal;font-variant-position:normal;font-variant-caps:normal;font-variant-numeric:normal;font-variant-alternates:normal;font-feature-settings:normal;text-indent:0;text-align:start;text-decoration-line:none;text-decoration-style:solid;text-decoration-color:#000;text-transform:none;text-orientation:mixed;shape-padding:0;isolation:auto;mix-blend-mode:normal" clip-path="url(#apclipPath1014)" color="#000" font-weight="400" font-family="sans-serif" white-space="normal" overflow="visible" fill="#b4b4b4" stroke-width=".75" filter="url(#apfilter836)" enable-background="accumulate"/></svg><svg id="28" data-name="Слой 2" viewBox="-5 -5 35.01 35.08" width="35.01" height="35.08" x="385" y="364" xmlns="http://www.w3.org/2000/svg"><defs id="aqdefs4"><style id="aqstyle2">.aqcls-1{fill:none;stroke:#fff;stroke-miterlimit:10;stroke-width:2px}</style></defs><path class="aqcls-1" id="aqline8" stroke="#fff" d="M4 3.58V0"/><path class="aqcls-1" id="aqline10" stroke="#fff" d="M4 9.58v15.5"/><path id="aqpath14" d="M4 3.59a3 3 0 0 1 0 6m0-6a3 3 0 1 0 0 6" stroke-width="2" stroke-miterlimit="10" fill="none" stroke="#fff"/><path class="aqcls-1" id="aqline16" stroke="#fff" d="M12.5 15.58V0"/><path class="aqcls-1" id="aqline18" stroke="#fff" d="M12.5 21.58v3.5"/><path d="M12.51 15.59a3 3 0 0 0 0 6 3 3 0 0 0 0-6z" id="aqpath20" stroke="#fff" stroke-width="2" fill="none"/><path class="aqcls-1" id="aqline24" stroke="#fff" d="M21.01 6.58V0"/><path class="aqcls-1" id="aqline26" stroke="#fff" d="M21.01 12.58v12.5"/><path d="M21.01 6.59a3 3 0 0 0 0 6 3 3 0 0 0 0-6z" id="aqpath28" fill="none" stroke="#fff" stroke-width="2"/></svg><svg id="29" data-name="Слой 2" viewBox="-5 -5 22.03 26.78" width="22.03" height="26.78" x="421" y="400" xmlns="http://www.w3.org/2000/svg"><defs id="ardefs4"><style id="arstyle2">.arcls-1,.arcls-3,.arcls-4{fill:none;stroke:red;stroke-miterlimit:10}.arcls-1{stroke-width:2.2px}.arcls-2{fill:red}.arcls-3{stroke-width:1.2px}</style></defs><path class="arcls-1" id="arline8" stroke="red" d="M1.1 5.64v8.33"/><path class="arcls-1" id="arline10" stroke="red" d="M10.93 5.64v8.33"/><circle class="arcls-2" cx="6.02" cy="6.76" r="1.33" id="arcircle12" fill="red"/><path class="arcls-3" d="M195.87 686.24a10 10 0 0 0-5.49-1.47 10.19 10.19 0 0 0-5.31 1.36" transform="translate(-184.37 -684.16)" id="arpath16" stroke="red"/><path class="arcls-4" id="arline18" d="M9.93 4.44"/><path class="arcls-3" d="M186.57 688.53a7.41 7.41 0 0 1 3.82-.94 7.28 7.28 0 0 1 3.92 1" transform="translate(-184.37 -684.16)" id="arpath20" stroke="red"/><path d="M.973 13.16a.97.97 0 0 0-.973.973v1.683a.97.97 0 0 0 .973.973h10.084a.97.97 0 0 0 .972-.973v-1.683a.97.97 0 0 0-.972-.973H.973zm5.043.695a1.12 1.12 0 1 1-.001 2.24 1.12 1.12 0 0 1 0-2.24z" id="arrect838" fill="red" stroke-width="2" stroke-linecap="round"/></svg><svg id="30" data-name="Слой 2" viewBox="-5 -5 22.03 26.78" width="22.03" height="26.78" x="444" y="427" xmlns="http://www.w3.org/2000/svg"><defs id="asdefs4"><style id="asstyle2">.ascls-1,.ascls-3,.ascls-4{fill:none;stroke:#ccd7d9;stroke-miterlimit:10}.ascls-1{stroke-width:2.2px}.ascls-2{fill:#ccd7d9}.ascls-3{stroke-width:1.2px}</style></defs><path class="ascls-1" id="asline8" stroke="#ccd7d9" d="M1.1 5.64v8.33"/><path class="ascls-1" id="asline10" stroke="#ccd7d9" d="M10.93 5.64v8.33"/><circle class="ascls-2" cx="6.02" cy="6.76" r="1.33" id="ascircle12" fill="#ccd7d9"/><path class="ascls-3" d="M195.87 686.24a10 10 0 0 0-5.49-1.47 10.19 10.19 0 0 0-5.31 1.36" transform="translate(-184.37 -684.16)" id="aspath16" stroke="#ccd7d9"/><path class="ascls-4" id="asline18" d="M9.93 4.44"/><path class="ascls-3" d="M186.57 688.53a7.41 7.41 0 0 1 3.82-.94 7.28 7.28 0 0 1 3.92 1" transform="translate(-184.37 -684.16)" id="aspath20" stroke="#ccd7d9"/><path d="M.973 13.16a.97.97 0 0 0-.973.973v1.683a.97.97 0 0 0 .973.973h10.084a.97.97 0 0 0 .972-.973v-1.683a.97.97 0 0 0-.972-.973H.973zm5.043.695a1.12 1.12 0 1 1-.001 2.24 1.12 1.12 0 0 1 0-2.24z" id="asrect838" fill="#ccd7d9" stroke-width="2" stroke-linecap="round"/></svg><svg id="31" data-name="Слой 2" viewBox="-5 -5 36.26 80.87" width="36.26" height="80.87" x="467" y="454" xmlns="http://www.w3.org/2000/svg"><defs id="atdefs39"><linearGradient id="atlinearGradient910"><stop offset="0" id="atstop906" stop-color="#dcdcdc" stop-opacity=".196"/><stop id="atstop914" offset=".25" stop-color="#d5dadb"/><stop offset=".75" id="atstop916" stop-color="#dcdcdc"/><stop offset="1" id="atstop908" stop-color="#d5dadb" stop-opacity=".196"/></linearGradient><linearGradient id="atlinearGradient898"><stop offset="0" id="atstop894" stop-color="#fff" stop-opacity=".196"/><stop id="atstop902" offset=".25" stop-color="#fff"/><stop offset=".75" id="atstop904" stop-color="#fff"/><stop offset="1" id="atstop896" stop-color="#fff" stop-opacity=".196"/></linearGradient><linearGradient id="atlinearGradient876"><stop offset="0" id="atstop872" stop-color="#969696" stop-opacity=".588"/><stop id="atstop880" offset=".25" stop-color="#fff"/><stop offset=".75" id="atstop882" stop-color="#fff" stop-opacity=".965"/><stop offset="1" id="atstop874" stop-color="#969696" stop-opacity=".588"/></linearGradient><style id="atstyle2">.atcls-1{fill:red}</style><filter id="atluminosity-invert-noclip" x="325.11" y="-8612.89" width="1.98" height="32766" filterUnits="userSpaceOnUse" color-interpolation-filters="sRGB"><feColorMatrix values="-1 0 0 0 1 0 -1 0 0 1 0 0 -1 0 1 0 0 0 1 0" result="invert" id="atfeColorMatrix4"/><feFlood flood-color="#fff" result="bg" id="atfeFlood6"/><feBlend in="invert" in2="bg" id="atfeBlend8"/></filter><radialGradient id="atБезымянный_градиент_93" cx="364.88" cy="635.23" r="21.88" gradientTransform="matrix(.7 0 0 1.15 70.68 -56.67)" gradientUnits="userSpaceOnUse"><stop offset=".18" stop-color="#fff" id="atstop14"/><stop offset=".48" stop-color="#fefefe" stop-opacity=".99" id="atstop16"/><stop offset=".59" stop-color="#fcfcfc" stop-opacity=".97" id="atstop18"/><stop offset=".67" stop-color="#f8f8f8" stop-opacity=".92" id="atstop20"/><stop offset=".74" stop-color="#f2f2f2" stop-opacity=".85" id="atstop22"/><stop offset=".79" stop-color="#eaeaea" stop-opacity=".77" id="atstop24"/><stop offset=".84" stop-color="#e0e0e0" stop-opacity=".66" id="atstop26"/><stop offset=".88" stop-color="#d4d4d4" stop-opacity=".53" id="atstop28"/><stop offset=".92" stop-color="#c6c6c6" stop-opacity=".39" id="atstop30"/><stop offset=".96" stop-color="#b7b7b7" stop-opacity=".22" id="atstop32"/><stop offset=".99" stop-color="#a6a6a6" stop-opacity=".04" id="atstop34"/><stop offset="1" stop-color="#a3a3a3" stop-opacity="0" id="atstop36"/></radialGradient><linearGradient xlink:href="#atlinearGradient876" id="atlinearGradient878-1" x1=".99" y1="70.87" x2=".99" y2=".01" gradientUnits="userSpaceOnUse" gradientTransform="matrix(1 0 0 .5645 .01 -.006)"/><linearGradient xlink:href="#atlinearGradient898" id="atlinearGradient900" x1="2" y1="15.51" x2="2" y2="55.51" gradientUnits="userSpaceOnUse"/><linearGradient xlink:href="#atlinearGradient910" id="atlinearGradient912" y1="15.51" x2="0" y2="55.51" gradientUnits="userSpaceOnUse"/></defs><path class="atcls-1" id="atpolygon43" transform="matrix(1.04167 0 0 1.04167 -1.094 -1.605)" fill="red" d="M26.26 37.23l-3.24-3.21-1.28-1.27-1.28 1.27-3.24 3.21 1.26 1.28 3.26-3.23 3.25 3.23z"/><g id="atg920" stroke-width=".284" stroke-linecap="round"><path id="atrect838" fill="url(#atlinearGradient912)" d="M0 15.51h1v40H0z"/><path id="atrect851" fill="url(#atlinearGradient900)" d="M1 15.51h1v40H1z"/></g></svg><svg id="32" data-name="Слой 2" viewBox="-5 -5 41.84 80.87" width="41.84" height="80.87" x="504" y="535" xmlns="http://www.w3.org/2000/svg"><defs id="audefs39"><linearGradient id="aulinearGradient900"><stop offset="0" id="austop896" stop-color="#f0f"/><stop offset="1" id="austop898" stop-color="#f0f" stop-opacity="0"/></linearGradient><style id="austyle2">.aucls-1,.aucls-2{fill:none;stroke:red;stroke-miterlimit:10}.aucls-1{stroke-width:1.5px}.aucls-2{stroke-width:2.2px}.cls-5{filter:url(#auluminosity-invert-noclip)}</style><filter id="auluminosity-invert-noclip" x="396.24" y="-8612.89" width="1.98" height="32766" filterUnits="userSpaceOnUse" color-interpolation-filters="sRGB"><feColorMatrix values="-1 0 0 0 1 0 -1 0 0 1 0 0 -1 0 1 0 0 0 1 0" result="invert" id="aufeColorMatrix4"/><feFlood flood-color="#fff" result="bg" id="aufeFlood6"/><feBlend in="invert" in2="bg" id="aufeBlend8"/></filter><radialGradient id="auБезымянный_градиент_93" cx="466.5" cy="637.92" r="21.88" gradientTransform="matrix(.7 0 0 1.15 70.68 -56.67)" gradientUnits="userSpaceOnUse"><stop offset=".18" stop-color="#fff" id="austop14"/><stop offset=".48" stop-color="#fefefe" stop-opacity=".99" id="austop16"/><stop offset=".59" stop-color="#fcfcfc" stop-opacity=".97" id="austop18"/><stop offset=".67" stop-color="#f8f8f8" stop-opacity=".92" id="austop20"/><stop offset=".74" stop-color="#f2f2f2" stop-opacity=".85" id="austop22"/><stop offset=".79" stop-color="#eaeaea" stop-opacity=".77" id="austop24"/><stop offset=".84" stop-color="#e0e0e0" stop-opacity=".66" id="austop26"/><stop offset=".88" stop-color="#d4d4d4" stop-opacity=".53" id="austop28"/><stop offset=".92" stop-color="#c6c6c6" stop-opacity=".39" id="austop30"/><stop offset=".96" stop-color="#b7b7b7" stop-opacity=".22" id="austop32"/><stop offset=".99" stop-color="#a6a6a6" stop-opacity=".04" id="austop34"/><stop offset="1" stop-color="#a3a3a3" stop-opacity="0" id="austop36"/></radialGradient><linearGradient xlink:href="#aulinearGradient900" id="aulinearGradient902" x1="1" y1=".01" x2="1" y2="70.87" gradientUnits="userSpaceOnUse"/><linearGradient xlink:href="#aulinearGradient910" id="aulinearGradient912" y1="15.51" x2="0" y2="55.51" gradientUnits="userSpaceOnUse"/><linearGradient id="aulinearGradient910"><stop offset="0" id="austop906" stop-color="#dcdcdc" stop-opacity=".196"/><stop id="austop914" offset=".25" stop-color="#d5dadb"/><stop offset=".75" id="austop916" stop-color="#dcdcdc"/><stop offset="1" id="austop908" stop-color="#d5dadb" stop-opacity=".196"/></linearGradient><linearGradient xlink:href="#aulinearGradient898" id="aulinearGradient900-9" x1="2" y1="15.51" x2="2" y2="55.51" gradientUnits="userSpaceOnUse"/><linearGradient id="aulinearGradient898"><stop offset="0" id="austop894" stop-color="#fff" stop-opacity=".196"/><stop id="austop902" offset=".25" stop-color="#fff"/><stop offset=".75" id="austop904" stop-color="#fff"/><stop offset="1" id="austop896-4" stop-color="#fff" stop-opacity=".196"/></linearGradient></defs><g id="aug905" transform="translate(0 -.1)"><path id="aurect43" class="aucls-1" fill="none" stroke="red" stroke-width="1.577" stroke-miterlimit="10" d="M13.283 28.868h17.749v15.383H13.283z"/><path id="auline45" class="aucls-2" fill="none" stroke="red" stroke-width="2.313" stroke-miterlimit="10" d="M22.157 26.04v4.469"/><path id="auline47" class="aucls-2" fill="none" stroke="red" stroke-width="2.313" stroke-miterlimit="10" d="M22.157 33.011v1.777"/><path id="auline49" class="aucls-2" fill="none" stroke="red" stroke-width="2.313" stroke-miterlimit="10" d="M22.157 35.997v1.767"/><path id="auline51" class="aucls-2" fill="none" stroke="red" stroke-width="2.313" stroke-miterlimit="10" d="M22.157 38.973v1.777"/><path id="auline53" class="aucls-2" fill="none" stroke="red" stroke-width="2.313" stroke-miterlimit="10" d="M18.277 26.04v4.469"/><path id="auline55" class="aucls-2" fill="none" stroke="red" stroke-width="2.313" stroke-miterlimit="10" d="M18.277 33.011v1.777"/><path id="auline57" class="aucls-2" fill="none" stroke="red" stroke-width="2.313" stroke-miterlimit="10" d="M18.277 35.997v1.767"/><path id="auline59" class="aucls-2" fill="none" stroke="red" stroke-width="2.313" stroke-miterlimit="10" d="M18.277 38.973v1.777"/><path id="auline61" class="aucls-2" fill="none" stroke="red" stroke-width="2.313" stroke-miterlimit="10" d="M26.026 26.04v4.469"/><path id="auline63" class="aucls-2" fill="none" stroke="red" stroke-width="2.313" stroke-miterlimit="10" d="M26.026 33.011v1.777"/><path id="auline65" class="aucls-2" fill="none" stroke="red" stroke-width="2.313" stroke-miterlimit="10" d="M26.026 35.997v1.767"/><path id="auline67" class="aucls-2" fill="none" stroke="red" stroke-width="2.313" stroke-miterlimit="10" d="M26.026 38.973v1.777"/></g><g transform="translate(0 -.07)" id="aug920" stroke-width=".284" stroke-linecap="round"><path id="aurect838" fill="url(#aulinearGradient912)" d="M0 15.51h1v40H0z"/><path id="aurect851" fill="url(#aulinearGradient900-9)" d="M1 15.51h1v40H1z"/></g></svg><svg id="34" data-name="Слой 2" viewBox="-5 -5 43.93 35.53" width="43.93" height="35.53" x="546" y="616" xmlns="http://www.w3.org/2000/svg"><defs><style>.avcls-1{fill:#fff}</style></defs><path class="avcls-1" d="M246.45 618.43a38.66 38.66 0 0 1-6.84-.51 8.37 8.37 0 0 1-3.26-1 1.54 1.54 0 0 1-.78-1.55 15.45 15.45 0 0 0-3.24-10.78.59.59 0 0 1 0-.82.56.56 0 0 1 .8-.14c.71.46 1.4 1 2.13 1.39a17.89 17.89 0 0 0 2.71 1.38c.93.34 1.19.09 1.21-.77a21.36 21.36 0 0 0-.2-2.93c-.08-.7-.3-1.38-.39-2.08a.87.87 0 0 1 .33-.64.54.54 0 0 1 .8.11c.32.41.61.85.95 1.25.7.84 1.43 1.66 2.15 2.49l.11.11c.77.69 1.34.62 1.73-.33a22.71 22.71 0 0 0 .88-2.76c.21-.77.34-1.56.5-2.34a.65.65 0 0 1 .6-.57.61.61 0 0 1 .65.56c.17.8.32 1.61.51 2.41A8.6 8.6 0 0 0 249 604c.29.4.59.49 1 .19a12.43 12.43 0 0 0 1.68-1.57c.66-.77 1.23-1.62 1.85-2.43a.67.67 0 0 1 .87-.3c.35.15.45.38.38.84-.19 1.14-.4 2.27-.56 3.41a5.43 5.43 0 0 0 0 1.45c.11.86.3 1.08 1.25.77a12.72 12.72 0 0 0 2.41-1.21c.78-.46 1.5-1 2.25-1.49a.69.69 0 0 1 1 .07c.23.26.2.55-.08.92a15.4 15.4 0 0 0-3.16 10.65 1.59 1.59 0 0 1-.86 1.62 9.29 9.29 0 0 1-3.31 1 40.35 40.35 0 0 1-7.27.51zm-8.18-2.82c2.79 1.26 14.1 1.25 16.85 0-1.39-1.25-15.39-1.25-16.85 0zM246.68 592.91a2.11 2.11 0 0 1 2.1 2.11 2.17 2.17 0 0 1-2.11 2 2.06 2.06 0 0 1-2-2.06 2 2 0 0 1 2.01-2.05zM255.54 595.76a1.7 1.7 0 1 1 0 3.4 1.75 1.75 0 0 1-1.8-1.7 1.71 1.71 0 0 1 1.8-1.7zM237.7 595.76a1.69 1.69 0 1 1-.06 3.38 1.69 1.69 0 0 1 .06-3.38zM262.43 603.47a1.12 1.12 0 0 1-1.15-1.14 1.22 1.22 0 0 1 1.15-1.12 1.31 1.31 0 0 1 1.22 1.16 1.22 1.22 0 0 1-1.22 1.1zM232 602.37a1.1 1.1 0 0 1-1.11 1.12 1.2 1.2 0 0 1-1.21-1.14 1.22 1.22 0 0 1 1.18-1.12 1.13 1.13 0 0 1 1.14 1.14z" transform="translate(-229.72 -592.91)"/></svg><svg id="35" data-name="Слой 2" viewBox="-5 -5 63.09 62.8" width="63.09" height="62.8" x="590" y="652" xmlns="http://www.w3.org/2000/svg"><defs id="awdefs4"><style id="awstyle2">.awcls-1{fill:#fff}</style></defs><path class="awcls-1" d="M290.71 613.27a2.47 2.47 0 0 1 .79-1.82l.53-.51 11.88-11.84 10.31-10.25.16-.15 2.49 2.52c-.36.33-.78.7-1.18 1.09l-7.83 7.8-8.16 8.12c-1.89 1.88-3.79 3.76-5.66 5.66a1.09 1.09 0 0 0-.27.66v9.58a.45.45 0 0 0 .45.45h9.88a1.14 1.14 0 0 0 .69-.29q11.31-11.29 22.63-22.57l2.44 2.47-1.11 1.13-8.37 8.33c-4.43 4.41-8.88 8.81-13.29 13.25a2.5 2.5 0 0 1-2 .81h-14.4z" transform="translate(-290.71 -574.91)" id="awpath8"/><path class="awcls-1" d="M343.8 590.54c-.43.4-.86.79-1.28 1.2l-4.77 4.81a2.77 2.77 0 0 1-.23.19l-15.68-15.68 6.41-6.15 15.54 15.54z" transform="translate(-290.71 -574.91)" id="awpath10"/><path class="awcls-1" d="M301.73 621.77l-4.8-5.02c2.973-2.953 6.103-6.11 9.07-9.07l13.35-13.3a2.2 2.2 0 0 0 .28-.45l5 5z" transform="translate(-290.71 -574.91)" id="awpath12" fill="#fff"/><path class="awcls-1" d="M332.58 601.56L317 586l2.5-2.46 15.61 15.61z" transform="translate(-290.71 -574.91)" id="awpath14"/><path d="M6.22 46.86h4.8l.872-5.824-5.672.804z" id="awpolygon16" fill="#fff"/></svg><svg id="36" data-name="Слой 2" viewBox="-5 -5 63.39 62.23" width="63.39" height="62.23" x="654" y="715" xmlns="http://www.w3.org/2000/svg"><defs><style>.axcls-1{fill:#fff}</style></defs><path class="axcls-1" d="M403.44 587.51c.33 1.31.62 2.31.82 3.33s.33 2.08.52 3.31l6 3.85-2 6.62 3.55 5.87-4.9 5.22.44 6.68-6.66 2.38-2.95 6.14-6.85-1-5.46 4.09-5.66-4.09-6.79 1-3-6.2-6.67-2.3.53-7.5-5.45-3.65 4-6.7-2.08-6.48 6-4 1.25-6.59 7.16-.76 3.87-5 6.73 2.34 6.63-2.39 3.92 5.09zm-25.71 20c3.66 0 5.93-2.23 6-5.87a5.7 5.7 0 0 0-5.8-6.13 5.76 5.76 0 0 0-6.17 6.14c0 3.66 2.3 5.9 5.97 5.91zm16.2.39c-3.7 0-5.92 2.27-5.87 5.93s2.34 5.83 6 5.8a5.64 5.64 0 0 0 5.94-6c0-3.45-2.41-5.72-6.06-5.68zm-3.29-12l-12.71 23.63h3.2l12.76-23.63z" transform="translate(-358.94 -581.74)"/><ellipse class="axcls-1" cx="18.7" cy="19.79" rx="1.98" ry="3.52"/><ellipse class="axcls-1" cx="34.97" cy="32.08" rx="1.98" ry="3.52"/></svg><svg id="37" data-name="Слой 2" viewBox="-5 -5 68 62.6" width="68" height="62.6" x="718" y="778" xmlns="http://www.w3.org/2000/svg"><defs><style>.aycls-1{fill:#fff}</style></defs><path class="aycls-1" d="M449.81 631.35l-.34-.45a69.26 69.26 0 0 0-6.37-7.25c-2.3-2.3-4.73-4.46-7.18-6.61-1.63-1.44-3.26-2.87-4.87-4.34a50.15 50.15 0 0 1-4.55-4.7 26.61 26.61 0 0 1-3.41-5 19.58 19.58 0 0 1-.87-1.93c-.16-.42-.33-.83-.45-1.26a34.88 34.88 0 0 1-.69-2.91c-.07-.38-.06-.49-.08-.74s-.07-.68-.1-1a18.14 18.14 0 0 1 0-3.18c0-.22 0-.44.06-.65s.11-.61.18-.91c.11-.46.19-.93.34-1.38a15.92 15.92 0 0 1 .83-2.06 14.93 14.93 0 0 1 2.28-3.36 14.71 14.71 0 0 1 3.36-2.77 14.46 14.46 0 0 1 3.52-1.53c.43-.12.87-.2 1.31-.29a11.8 11.8 0 0 1 2.52-.25c.56 0 1.11 0 1.67.08.38 0 .75.12 1.13.18a12.15 12.15 0 0 1 3.06.9 14.54 14.54 0 0 1 7 6.3c.35.62.64 1.28 1 1.91l.64 1.26v.06l.07-.11c.19-.39.36-.78.56-1.16a26.7 26.7 0 0 1 1.7-3.07 14.75 14.75 0 0 1 6.1-5.07 13.55 13.55 0 0 1 2.61-.88c.38-.08.76-.14 1.14-.21a12.83 12.83 0 0 1 3-.15c.34 0 .68.07 1 .11l.6.08c.31.05.63.11.94.18a13.89 13.89 0 0 1 4.09 1.64 14.62 14.62 0 0 1 3.52 2.91 14.43 14.43 0 0 1 2.59 4.17c.17.42.31.86.44 1.29s.22.77.31 1.16.1.63.15.95.1.59.12.88a17.16 17.16 0 0 1 0 3.16q-.06.6-.14 1.19c0 .24-.1.48-.14.71s-.07.48-.13.72a16.43 16.43 0 0 1-.58 2c-.18.47-.37.93-.56 1.39a19.91 19.91 0 0 1-2.06 3.71 35.92 35.92 0 0 1-4.05 4.84c-1.82 1.86-3.75 3.59-5.69 5.32s-3.67 3.27-5.48 4.93a80.36 80.36 0 0 0-6.89 7.1q-1.62 1.9-3.08 3.93z" transform="translate(-420.83 -578.74)"/></svg><svg version="1" viewBox="-5 -5 157.7 142.5" width="157.7" height="142.5" id="39" x="786" y="841" xmlns="http://www.w3.org/2000/svg"><style>.azst0{fill:#d8262f}</style><g id="azСлой_2"><path class="azst0" d="M119.6 132.4l-1.6-9.5 6.7-6 1.5 14.8zM15.1 132.5L0 8.6 74.4 0l41.7 33.9 2.2 26.6-6.7-4.7-1.9-18.4L72.4 7 7.5 14.5l14.3 117.1z"/><path class="azst0" d="M73.7 43.3L70 3.8l6.7-.6 3 32.7 32.8-3.6.7 6.7z"/><path transform="matrix(.9963 -.08634 .08634 .9963 -5.29 5.519)" d="M32.1 60.6h58.1v6.7H32.1z"/><path transform="matrix(.9963 -.08634 .08634 .9963 -7.084 5.163)" d="M34.8 81.1h42.7v6.7H34.8z"/><path transform="matrix(.9963 -.08634 .08634 .9963 -8.795 5.37)" d="M36.1 101h43.1v6.7H36.1z"/><path d="M109 123.2l-1.5-20.6-23.2 1.3-2-21.8h.2l-.2-2.6 22.1-1.7-1.7-20.4 45.1 29.9-38.8 35.9zm4.6-27.7l1 13.3 22.3-20.7-26.4-17.6 1.1 13.3-22.3 1.8 1 11.3 23.3-1.4z"/></g></svg><svg id="40" data-name="Слой 2" viewBox="-5 -5 36.26 80.87" width="36.26" height="80.87" x="944" y="984" xmlns="http://www.w3.org/2000/svg"><defs id="badefs39"><style id="bastyle2">.bacls-1{fill:red}</style><filter id="baluminosity-invert-noclip" x="325.11" y="-8612.89" width="1.98" height="32766" filterUnits="userSpaceOnUse" color-interpolation-filters="sRGB"><feColorMatrix values="-1 0 0 0 1 0 -1 0 0 1 0 0 -1 0 1 0 0 0 1 0" result="invert" id="bafeColorMatrix4"/><feFlood flood-color="#fff" result="bg" id="bafeFlood6"/><feBlend in="invert" in2="bg" id="bafeBlend8"/></filter><radialGradient id="baБезымянный_градиент_93" cx="364.88" cy="635.23" r="21.88" gradientTransform="matrix(.7 0 0 1.15 70.68 -56.67)" gradientUnits="userSpaceOnUse"><stop offset=".18" stop-color="#fff" id="bastop14"/><stop offset=".48" stop-color="#fefefe" stop-opacity=".99" id="bastop16"/><stop offset=".59" stop-color="#fcfcfc" stop-opacity=".97" id="bastop18"/><stop offset=".67" stop-color="#f8f8f8" stop-opacity=".92" id="bastop20"/><stop offset=".74" stop-color="#f2f2f2" stop-opacity=".85" id="bastop22"/><stop offset=".79" stop-color="#eaeaea" stop-opacity=".77" id="bastop24"/><stop offset=".84" stop-color="#e0e0e0" stop-opacity=".66" id="bastop26"/><stop offset=".88" stop-color="#d4d4d4" stop-opacity=".53" id="bastop28"/><stop offset=".92" stop-color="#c6c6c6" stop-opacity=".39" id="bastop30"/><stop offset=".96" stop-color="#b7b7b7" stop-opacity=".22" id="bastop32"/><stop offset=".99" stop-color="#a6a6a6" stop-opacity=".04" id="bastop34"/><stop offset="1" stop-color="#a3a3a3" stop-opacity="0" id="bastop36"/></radialGradient><linearGradient xlink:href="#balinearGradient910" id="balinearGradient912" y1="15.51" x2="0" y2="55.51" gradientUnits="userSpaceOnUse"/><linearGradient id="balinearGradient910"><stop offset="0" id="bastop906" stop-color="#dcdcdc" stop-opacity=".196"/><stop id="bastop914" offset=".25" stop-color="#d5dadb"/><stop offset=".75" id="bastop916" stop-color="#dcdcdc"/><stop offset="1" id="bastop908" stop-color="#d5dadb" stop-opacity=".196"/></linearGradient><linearGradient xlink:href="#balinearGradient898" id="balinearGradient900" x1="2" y1="15.51" x2="2" y2="55.51" gradientUnits="userSpaceOnUse"/><linearGradient id="balinearGradient898"><stop offset="0" id="bastop894" stop-color="#fff" stop-opacity=".196"/><stop id="bastop902" offset=".25" stop-color="#fff"/><stop offset=".75" id="bastop904" stop-color="#fff"/><stop offset="1" id="bastop896" stop-color="#fff" stop-opacity=".196"/></linearGradient></defs><path class="bacls-1" id="bapolygon43" transform="matrix(1.04167 0 0 -1.04167 -1.094 72.625)" fill="red" d="M21.74 32.75l-1.28 1.27-3.24 3.21 1.26 1.28 3.26-3.23 3.25 3.23 1.27-1.28-3.24-3.21z"/><g transform="translate(-.01)" id="bag920" stroke-width=".284" stroke-linecap="round"><path id="barect838" fill="url(#balinearGradient912)" d="M0 15.51h1v40H0z"/><path id="barect851" fill="url(#balinearGradient900)" d="M1 15.51h1v40H1z"/></g></svg></svg>