<?xml version="1.0" encoding="UTF-8" standalone="no"?>
<!-- Creator: CorelDRAW -->

<svg
   xmlns:dc="http://purl.org/dc/elements/1.1/"
   xmlns:cc="http://creativecommons.org/ns#"
   xmlns:rdf="http://www.w3.org/1999/02/22-rdf-syntax-ns#"
   xmlns:svg="http://www.w3.org/2000/svg"
   xmlns="http://www.w3.org/2000/svg"
   xmlns:sodipodi="http://sodipodi.sourceforge.net/DTD/sodipodi-0.dtd"
   xmlns:inkscape="http://www.inkscape.org/namespaces/inkscape"
   xml:space="preserve"
   width="108.373mm"
   height="104.996mm"
   version="1.1"
   style="shape-rendering:geometricPrecision; text-rendering:geometricPrecision; image-rendering:optimizeQuality; fill-rule:evenodd; clip-rule:evenodd"
   viewBox="0 0 65022 10837"
   id="svg16"
   sodipodi:docname="стрелки корзина почта.svg"
   inkscape:version="0.92.3 (2405546, 2018-03-11)"><metadata
   id="metadata20"><rdf:RDF><cc:Work
       rdf:about=""><dc:format>image/svg+xml</dc:format><dc:type
         rdf:resource="http://purl.org/dc/dcmitype/StillImage" /></cc:Work></rdf:RDF></metadata><sodipodi:namedview
   pagecolor="#ffffff"
   bordercolor="#666666"
   borderopacity="1"
   objecttolerance="10"
   gridtolerance="10"
   guidetolerance="10"
   inkscape:pageopacity="0"
   inkscape:pageshadow="2"
   inkscape:window-width="1280"
   inkscape:window-height="972"
   id="namedview18"
   showgrid="false"
   inkscape:zoom="1.1894104"
   inkscape:cx="347.50112"
   inkscape:cy="50.811393"
   inkscape:window-x="-8"
   inkscape:window-y="-8"
   inkscape:window-maximized="1"
   inkscape:current-layer="svg16" />
 <defs
   id="defs4">
  <style
   type="text/css"
   id="style2">
   <![CDATA[
    .fil1 {fill:#13A3EA;fill-rule:nonzero}
    .fil0 {fill:#858484;fill-rule:nonzero}
   ]]>
  </style>
 
  
  
  
  
  
 </defs>
 <path
   style="fill:#858484;fill-rule:nonzero"
   inkscape:connector-curvature="0"
   id="path7"
   d="m 5419,0 c 1496,0 2850,607 3831,1587 981,981 1587,2336 1587,3832 0,1496 -606,2850 -1587,3831 -981,981 -2335,1587 -3831,1587 -1496,0 -2851,-606 -3832,-1587 C 607,8269 0,6915 0,5419 0,3923 607,2568 1587,1587 2568,607 3923,0 5419,0 Z M 4100,3096 c -190,-191 -190,-500 0,-691 191,-191 500,-191 691,0 L 7804,5419 4791,8432 c -191,191 -500,191 -691,0 -190,-190 -190,-500 0,-690 L 6423,5419 Z M 8560,2278 C 7756,1474 6645,977 5419,977 4192,977 3081,1474 2278,2278 1474,3081 977,4192 977,5419 c 0,1226 497,2337 1301,3141 803,803 1914,1300 3141,1300 1226,0 2337,-497 3141,-1300 803,-804 1300,-1915 1300,-3141 0,-1227 -497,-2338 -1300,-3141 z"
   class="fil0" /><path
   style="fill:#858484;fill-rule:nonzero"
   inkscape:connector-curvature="0"
   id="path9"
   d="m 20201,977 c -1227,0 -2338,497 -3141,1301 -804,803 -1301,1914 -1301,3141 0,1226 497,2337 1301,3141 803,803 1914,1300 3141,1300 1226,0 2337,-497 3141,-1300 803,-804 1300,-1915 1300,-3141 0,-1227 -497,-2338 -1300,-3141 C 22538,1474 21427,977 20201,977 Z m 628,1428 c 190,-191 500,-191 690,0 191,191 191,500 0,691 l -2323,2323 2323,2323 c 191,190 191,500 0,690 -190,191 -500,191 -690,0 L 17815,5419 Z M 16369,1587 C 17350,607 18705,0 20201,0 c 1496,0 2850,607 3831,1587 981,981 1587,2336 1587,3832 0,1496 -606,2850 -1587,3831 -981,981 -2335,1587 -3831,1587 -1496,0 -2851,-606 -3832,-1587 -980,-981 -1587,-2335 -1587,-3831 0,-1496 607,-2851 1587,-3832 z"
   class="fil0" /><path
   style="fill:#858484;fill-rule:nonzero"
   inkscape:connector-curvature="0"
   id="path11"
   d="m 34150,2843 c -106,0 -202,-44 -272,-113 -69,-70 -113,-166 -113,-272 v -416 c 0,-105 44,-202 113,-271 70,-70 166,-113 272,-113 h 7444 c 105,0 201,43 271,113 70,69 113,166 113,271 v 416 c 0,106 -43,202 -113,272 -70,69 -166,113 -271,113 -2482,0 -4963,0 -7444,0 z M 39557,1401 V 728 c 0,-282 -231,-513 -513,-513 h -2345 c -282,0 -513,231 -513,513 v 673 h -2036 c -176,0 -337,73 -453,189 -116,116 -188,276 -188,452 v 416 c 0,177 72,337 188,453 116,116 277,188 453,188 h 223 v 6650 c 0,247 101,471 263,634 163,162 387,263 634,263 h 5203 c 247,0 471,-101 634,-264 163,-162 264,-387 264,-633 V 3099 h 223 c 176,0 336,-72 452,-188 116,-116 188,-276 188,-453 v -416 c 0,-176 -72,-336 -188,-452 -116,-116 -276,-189 -452,-189 z m -1957,3563 c 0,-150 122,-271 272,-271 150,0 271,121 271,271 v 4537 c 0,150 -121,271 -271,271 -150,0 -272,-121 -272,-271 z m 1834,0 c 0,-150 122,-271 272,-271 149,0 271,121 271,271 v 4537 c 0,150 -122,271 -271,271 -150,0 -272,-121 -272,-271 z m -3125,4537 c 0,150 -121,271 -271,271 -150,0 -271,-121 -271,-271 V 4964 c 0,-150 121,-271 271,-271 150,0 271,121 271,271 z m 4805,-6402 v 6650 c 0,176 -72,337 -188,453 -116,116 -277,188 -453,188 h -5203 c -176,0 -336,-72 -452,-188 -117,-117 -189,-277 -189,-453 V 3099 Z"
   class="fil0" /><path
   style="fill:#13a3ea;fill-rule:nonzero"
   inkscape:connector-curvature="0"
   id="path13"
   d="m 53383,1228 h 10781 c 236,0 451,97 606,252 156,156 252,371 252,606 v 6752 c 0,236 -96,450 -252,606 -155,156 -370,252 -606,252 H 53383 c -236,0 -450,-96 -606,-251 -155,-157 -251,-371 -251,-607 V 2086 c 0,-235 96,-450 252,-606 155,-155 369,-252 605,-252 z m 10152,6253 c 100,66 128,200 63,300 -66,100 -200,129 -300,63 L 60985,6332 c -100,-66 -128,-200 -63,-300 66,-100 200,-128 300,-63 z M 56325,5969 c 100,-65 235,-37 300,63 66,100 38,234 -62,300 l -2313,1512 c -100,66 -235,37 -300,-63 -66,-100 -38,-234 63,-300 z m 6707,-2544 c 100,-65 235,-37 300,63 66,100 38,234 -62,300 L 58774,6727 54278,3788 c -100,-66 -128,-200 -63,-300 66,-100 200,-128 301,-63 l 4258,2785 z M 64164,1662 H 53383 c -116,0 -222,48 -299,125 -77,76 -124,182 -124,299 v 6752 c 0,117 47,223 123,300 78,76 184,124 300,124 h 10781 c 117,0 223,-48 299,-124 78,-77 125,-183 125,-300 V 2086 c 0,-117 -47,-223 -124,-299 -77,-77 -183,-125 -300,-125 z"
   class="fil1" />
</svg>